<mxfile host="app.diagrams.net" modified="2024-03-19T19:58:38.401Z" agent="Mozilla/5.0 (Windows NT 10.0; Win64; x64) AppleWebKit/537.36 (KHTML, like Gecko) Chrome/122.0.0.0 Safari/537.36" etag="V_wuWGI6PObzAUnbbdG5" version="24.0.7" type="github" pages="2">
  <diagram name="DClasse - 01" id="jPcw8ikbb_NpX0U8tiwh">
    <mxGraphModel dx="1674" dy="1949" grid="1" gridSize="10" guides="1" tooltips="1" connect="1" arrows="1" fold="1" page="1" pageScale="1" pageWidth="827" pageHeight="1169" math="0" shadow="0">
      <root>
        <mxCell id="xZh5Dy3FaHv-DKSdzbyE-0" />
        <mxCell id="xZh5Dy3FaHv-DKSdzbyE-1" parent="xZh5Dy3FaHv-DKSdzbyE-0" />
        <mxCell id="xZh5Dy3FaHv-DKSdzbyE-2" value="Produto" style="swimlane;fontStyle=1;align=center;verticalAlign=top;childLayout=stackLayout;horizontal=1;startSize=26;horizontalStack=0;resizeParent=1;resizeParentMax=0;resizeLast=0;collapsible=1;marginBottom=0;whiteSpace=wrap;html=1;" vertex="1" parent="xZh5Dy3FaHv-DKSdzbyE-1">
          <mxGeometry x="335" y="-826" width="160" height="159" as="geometry" />
        </mxCell>
        <mxCell id="xZh5Dy3FaHv-DKSdzbyE-3" value="-IDProduto&lt;div&gt;-nome&lt;/div&gt;&lt;div&gt;-descrição&lt;/div&gt;&lt;div&gt;-preço&lt;/div&gt;&lt;div&gt;-estoque&lt;/div&gt;" style="text;strokeColor=none;fillColor=none;align=left;verticalAlign=top;spacingLeft=4;spacingRight=4;overflow=hidden;rotatable=0;points=[[0,0.5],[1,0.5]];portConstraint=eastwest;whiteSpace=wrap;html=1;" vertex="1" parent="xZh5Dy3FaHv-DKSdzbyE-2">
          <mxGeometry y="26" width="160" height="84" as="geometry" />
        </mxCell>
        <mxCell id="xZh5Dy3FaHv-DKSdzbyE-4" value="" style="line;strokeWidth=1;fillColor=none;align=left;verticalAlign=middle;spacingTop=-1;spacingLeft=3;spacingRight=3;rotatable=0;labelPosition=right;points=[];portConstraint=eastwest;strokeColor=inherit;" vertex="1" parent="xZh5Dy3FaHv-DKSdzbyE-2">
          <mxGeometry y="110" width="160" height="8" as="geometry" />
        </mxCell>
        <mxCell id="xZh5Dy3FaHv-DKSdzbyE-5" value="+atualizarEstoque()&lt;div&gt;+definirPreço()&lt;/div&gt;" style="text;strokeColor=none;fillColor=none;align=left;verticalAlign=top;spacingLeft=4;spacingRight=4;overflow=hidden;rotatable=0;points=[[0,0.5],[1,0.5]];portConstraint=eastwest;whiteSpace=wrap;html=1;" vertex="1" parent="xZh5Dy3FaHv-DKSdzbyE-2">
          <mxGeometry y="118" width="160" height="41" as="geometry" />
        </mxCell>
        <mxCell id="xZh5Dy3FaHv-DKSdzbyE-6" value="Pedido" style="swimlane;fontStyle=1;align=center;verticalAlign=top;childLayout=stackLayout;horizontal=1;startSize=26;horizontalStack=0;resizeParent=1;resizeParentMax=0;resizeLast=0;collapsible=1;marginBottom=0;whiteSpace=wrap;html=1;" vertex="1" parent="xZh5Dy3FaHv-DKSdzbyE-1">
          <mxGeometry x="335" y="-1065" width="160" height="134" as="geometry" />
        </mxCell>
        <mxCell id="xZh5Dy3FaHv-DKSdzbyE-7" value="-IDPedido&lt;div&gt;-dataPedido&lt;/div&gt;&lt;div&gt;-status&lt;/div&gt;" style="text;strokeColor=none;fillColor=none;align=left;verticalAlign=top;spacingLeft=4;spacingRight=4;overflow=hidden;rotatable=0;points=[[0,0.5],[1,0.5]];portConstraint=eastwest;whiteSpace=wrap;html=1;" vertex="1" parent="xZh5Dy3FaHv-DKSdzbyE-6">
          <mxGeometry y="26" width="160" height="58" as="geometry" />
        </mxCell>
        <mxCell id="xZh5Dy3FaHv-DKSdzbyE-8" value="" style="line;strokeWidth=1;fillColor=none;align=left;verticalAlign=middle;spacingTop=-1;spacingLeft=3;spacingRight=3;rotatable=0;labelPosition=right;points=[];portConstraint=eastwest;strokeColor=inherit;" vertex="1" parent="xZh5Dy3FaHv-DKSdzbyE-6">
          <mxGeometry y="84" width="160" height="8" as="geometry" />
        </mxCell>
        <mxCell id="xZh5Dy3FaHv-DKSdzbyE-9" value="+adicionarProduto()&lt;div&gt;+calcularTotal()&lt;/div&gt;" style="text;strokeColor=none;fillColor=none;align=left;verticalAlign=top;spacingLeft=4;spacingRight=4;overflow=hidden;rotatable=0;points=[[0,0.5],[1,0.5]];portConstraint=eastwest;whiteSpace=wrap;html=1;" vertex="1" parent="xZh5Dy3FaHv-DKSdzbyE-6">
          <mxGeometry y="92" width="160" height="42" as="geometry" />
        </mxCell>
        <mxCell id="xZh5Dy3FaHv-DKSdzbyE-10" value="Pagamento" style="swimlane;fontStyle=1;align=center;verticalAlign=top;childLayout=stackLayout;horizontal=1;startSize=26;horizontalStack=0;resizeParent=1;resizeParentMax=0;resizeLast=0;collapsible=1;marginBottom=0;whiteSpace=wrap;html=1;" vertex="1" parent="xZh5Dy3FaHv-DKSdzbyE-1">
          <mxGeometry x="612" y="-1070" width="160" height="125" as="geometry" />
        </mxCell>
        <mxCell id="xZh5Dy3FaHv-DKSdzbyE-11" value="-IDPagamento&lt;div&gt;-tipo&lt;/div&gt;&lt;div&gt;-status&lt;/div&gt;&lt;div&gt;-valor&lt;/div&gt;" style="text;strokeColor=none;fillColor=none;align=left;verticalAlign=top;spacingLeft=4;spacingRight=4;overflow=hidden;rotatable=0;points=[[0,0.5],[1,0.5]];portConstraint=eastwest;whiteSpace=wrap;html=1;" vertex="1" parent="xZh5Dy3FaHv-DKSdzbyE-10">
          <mxGeometry y="26" width="160" height="65" as="geometry" />
        </mxCell>
        <mxCell id="xZh5Dy3FaHv-DKSdzbyE-12" value="" style="line;strokeWidth=1;fillColor=none;align=left;verticalAlign=middle;spacingTop=-1;spacingLeft=3;spacingRight=3;rotatable=0;labelPosition=right;points=[];portConstraint=eastwest;strokeColor=inherit;" vertex="1" parent="xZh5Dy3FaHv-DKSdzbyE-10">
          <mxGeometry y="91" width="160" height="8" as="geometry" />
        </mxCell>
        <mxCell id="xZh5Dy3FaHv-DKSdzbyE-13" value="+processarPagamento()" style="text;strokeColor=none;fillColor=none;align=left;verticalAlign=top;spacingLeft=4;spacingRight=4;overflow=hidden;rotatable=0;points=[[0,0.5],[1,0.5]];portConstraint=eastwest;whiteSpace=wrap;html=1;" vertex="1" parent="xZh5Dy3FaHv-DKSdzbyE-10">
          <mxGeometry y="99" width="160" height="26" as="geometry" />
        </mxCell>
        <mxCell id="xZh5Dy3FaHv-DKSdzbyE-14" value="CarrinhoDeComprar" style="swimlane;fontStyle=1;align=center;verticalAlign=top;childLayout=stackLayout;horizontal=1;startSize=26;horizontalStack=0;resizeParent=1;resizeParentMax=0;resizeLast=0;collapsible=1;marginBottom=0;whiteSpace=wrap;html=1;" vertex="1" parent="xZh5Dy3FaHv-DKSdzbyE-1">
          <mxGeometry x="334" y="-570" width="160" height="125" as="geometry" />
        </mxCell>
        <mxCell id="xZh5Dy3FaHv-DKSdzbyE-17" value="+adicionarProduto()&lt;div&gt;+removerProduto()&lt;/div&gt;&lt;div&gt;+calcularTotal()&lt;/div&gt;" style="text;strokeColor=none;fillColor=none;align=left;verticalAlign=top;spacingLeft=4;spacingRight=4;overflow=hidden;rotatable=0;points=[[0,0.5],[1,0.5]];portConstraint=eastwest;whiteSpace=wrap;html=1;" vertex="1" parent="xZh5Dy3FaHv-DKSdzbyE-14">
          <mxGeometry y="26" width="160" height="53" as="geometry" />
        </mxCell>
        <mxCell id="xZh5Dy3FaHv-DKSdzbyE-15" value="-IDCarrinho&lt;div&gt;-produtos&lt;/div&gt;" style="text;strokeColor=none;fillColor=none;align=left;verticalAlign=top;spacingLeft=4;spacingRight=4;overflow=hidden;rotatable=0;points=[[0,0.5],[1,0.5]];portConstraint=eastwest;whiteSpace=wrap;html=1;" vertex="1" parent="xZh5Dy3FaHv-DKSdzbyE-14">
          <mxGeometry y="79" width="160" height="38" as="geometry" />
        </mxCell>
        <mxCell id="xZh5Dy3FaHv-DKSdzbyE-16" value="" style="line;strokeWidth=1;fillColor=none;align=left;verticalAlign=middle;spacingTop=-1;spacingLeft=3;spacingRight=3;rotatable=0;labelPosition=right;points=[];portConstraint=eastwest;strokeColor=inherit;" vertex="1" parent="xZh5Dy3FaHv-DKSdzbyE-14">
          <mxGeometry y="117" width="160" height="8" as="geometry" />
        </mxCell>
        <mxCell id="xZh5Dy3FaHv-DKSdzbyE-18" value="Cliente" style="swimlane;fontStyle=1;align=center;verticalAlign=top;childLayout=stackLayout;horizontal=1;startSize=26;horizontalStack=0;resizeParent=1;resizeParentMax=0;resizeLast=0;collapsible=1;marginBottom=0;whiteSpace=wrap;html=1;" vertex="1" parent="xZh5Dy3FaHv-DKSdzbyE-1">
          <mxGeometry x="56" y="-1070" width="160" height="139" as="geometry" />
        </mxCell>
        <mxCell id="xZh5Dy3FaHv-DKSdzbyE-19" value="-IDCliente&amp;nbsp;&lt;div&gt;-nome&lt;/div&gt;&lt;div&gt;-email&lt;/div&gt;&lt;div&gt;-endereço&lt;/div&gt;" style="text;strokeColor=none;fillColor=none;align=left;verticalAlign=top;spacingLeft=4;spacingRight=4;overflow=hidden;rotatable=0;points=[[0,0.5],[1,0.5]];portConstraint=eastwest;whiteSpace=wrap;html=1;" vertex="1" parent="xZh5Dy3FaHv-DKSdzbyE-18">
          <mxGeometry y="26" width="160" height="68" as="geometry" />
        </mxCell>
        <mxCell id="xZh5Dy3FaHv-DKSdzbyE-20" value="" style="line;strokeWidth=1;fillColor=none;align=left;verticalAlign=middle;spacingTop=-1;spacingLeft=3;spacingRight=3;rotatable=0;labelPosition=right;points=[];portConstraint=eastwest;strokeColor=inherit;" vertex="1" parent="xZh5Dy3FaHv-DKSdzbyE-18">
          <mxGeometry y="94" width="160" height="8" as="geometry" />
        </mxCell>
        <mxCell id="xZh5Dy3FaHv-DKSdzbyE-21" value="+registrar()&lt;div&gt;+login()&lt;/div&gt;" style="text;strokeColor=none;fillColor=none;align=left;verticalAlign=top;spacingLeft=4;spacingRight=4;overflow=hidden;rotatable=0;points=[[0,0.5],[1,0.5]];portConstraint=eastwest;whiteSpace=wrap;html=1;" vertex="1" parent="xZh5Dy3FaHv-DKSdzbyE-18">
          <mxGeometry y="102" width="160" height="37" as="geometry" />
        </mxCell>
        <mxCell id="xZh5Dy3FaHv-DKSdzbyE-22" value="" style="fontSize=12;html=1;endArrow=ERoneToMany;startArrow=ERzeroToMany;rounded=0;startSize=8;endSize=8;entryX=1;entryY=0.5;entryDx=0;entryDy=0;exitX=0;exitY=0.5;exitDx=0;exitDy=0;" edge="1" parent="xZh5Dy3FaHv-DKSdzbyE-1" source="xZh5Dy3FaHv-DKSdzbyE-7" target="xZh5Dy3FaHv-DKSdzbyE-19">
          <mxGeometry width="100" height="100" relative="1" as="geometry">
            <mxPoint x="199" y="-793" as="sourcePoint" />
            <mxPoint x="299" y="-893" as="targetPoint" />
          </mxGeometry>
        </mxCell>
        <mxCell id="xZh5Dy3FaHv-DKSdzbyE-23" value="" style="fontSize=12;html=1;endArrow=ERoneToMany;startArrow=ERzeroToMany;rounded=0;startSize=8;endSize=8;entryX=0.5;entryY=0;entryDx=0;entryDy=0;" edge="1" parent="xZh5Dy3FaHv-DKSdzbyE-1" source="xZh5Dy3FaHv-DKSdzbyE-9" target="xZh5Dy3FaHv-DKSdzbyE-2">
          <mxGeometry width="100" height="100" relative="1" as="geometry">
            <mxPoint x="199" y="-793" as="sourcePoint" />
            <mxPoint x="299" y="-893" as="targetPoint" />
          </mxGeometry>
        </mxCell>
        <mxCell id="xZh5Dy3FaHv-DKSdzbyE-24" value="" style="fontSize=12;html=1;endArrow=ERoneToMany;startArrow=ERzeroToOne;rounded=0;startSize=8;endSize=8;exitX=0.5;exitY=0;exitDx=0;exitDy=0;" edge="1" parent="xZh5Dy3FaHv-DKSdzbyE-1" target="xZh5Dy3FaHv-DKSdzbyE-5">
          <mxGeometry width="100" height="100" relative="1" as="geometry">
            <mxPoint x="415" y="-568" as="sourcePoint" />
            <mxPoint x="577" y="-768" as="targetPoint" />
          </mxGeometry>
        </mxCell>
        <mxCell id="xZh5Dy3FaHv-DKSdzbyE-25" value="" style="fontSize=12;html=1;endArrow=ERoneToMany;startArrow=ERoneToMany;rounded=0;startSize=8;endSize=8;entryX=0;entryY=0.5;entryDx=0;entryDy=0;exitX=1;exitY=0.5;exitDx=0;exitDy=0;" edge="1" parent="xZh5Dy3FaHv-DKSdzbyE-1" source="xZh5Dy3FaHv-DKSdzbyE-7" target="xZh5Dy3FaHv-DKSdzbyE-11">
          <mxGeometry width="100" height="100" relative="1" as="geometry">
            <mxPoint x="511" y="-893" as="sourcePoint" />
            <mxPoint x="611" y="-993" as="targetPoint" />
          </mxGeometry>
        </mxCell>
      </root>
    </mxGraphModel>
  </diagram>
  <diagram name="DClasse - 02" id="OuO_ZdvTBSdrr3kOte6p">
    <mxGraphModel dx="1674" dy="1949" grid="1" gridSize="10" guides="1" tooltips="1" connect="1" arrows="1" fold="1" page="1" pageScale="1" pageWidth="827" pageHeight="1169" math="0" shadow="0">
      <root>
        <mxCell id="0" />
        <mxCell id="1" parent="0" />
        <mxCell id="bdUPGDWGOzHbn5Srj9QY-1" value="Produto" style="swimlane;fontStyle=1;align=center;verticalAlign=top;childLayout=stackLayout;horizontal=1;startSize=26;horizontalStack=0;resizeParent=1;resizeParentMax=0;resizeLast=0;collapsible=1;marginBottom=0;whiteSpace=wrap;html=1;" vertex="1" parent="1">
          <mxGeometry x="671" y="81" width="250" height="170" as="geometry" />
        </mxCell>
        <mxCell id="bdUPGDWGOzHbn5Srj9QY-2" value="+IDProduto: int&lt;div&gt;+nome: String&lt;/div&gt;&lt;div&gt;+descrição: String&lt;/div&gt;&lt;div&gt;+preço: float&lt;/div&gt;&lt;div&gt;+estoque: boolean&amp;nbsp;&lt;/div&gt;" style="text;strokeColor=none;fillColor=none;align=left;verticalAlign=top;spacingLeft=4;spacingRight=4;overflow=hidden;rotatable=0;points=[[0,0.5],[1,0.5]];portConstraint=eastwest;whiteSpace=wrap;html=1;" vertex="1" parent="bdUPGDWGOzHbn5Srj9QY-1">
          <mxGeometry y="26" width="250" height="84" as="geometry" />
        </mxCell>
        <mxCell id="bdUPGDWGOzHbn5Srj9QY-3" value="" style="line;strokeWidth=1;fillColor=none;align=left;verticalAlign=middle;spacingTop=-1;spacingLeft=3;spacingRight=3;rotatable=0;labelPosition=right;points=[];portConstraint=eastwest;strokeColor=inherit;" vertex="1" parent="bdUPGDWGOzHbn5Srj9QY-1">
          <mxGeometry y="110" width="250" height="8" as="geometry" />
        </mxCell>
        <mxCell id="bdUPGDWGOzHbn5Srj9QY-4" value="+atualizarEstoque(estoque: boolean): void&lt;div&gt;+definirPreço(): void&lt;/div&gt;" style="text;strokeColor=none;fillColor=none;align=left;verticalAlign=top;spacingLeft=4;spacingRight=4;overflow=hidden;rotatable=0;points=[[0,0.5],[1,0.5]];portConstraint=eastwest;whiteSpace=wrap;html=1;" vertex="1" parent="bdUPGDWGOzHbn5Srj9QY-1">
          <mxGeometry y="118" width="250" height="52" as="geometry" />
        </mxCell>
        <mxCell id="bdUPGDWGOzHbn5Srj9QY-5" value="Pedido" style="swimlane;fontStyle=1;align=center;verticalAlign=top;childLayout=stackLayout;horizontal=1;startSize=26;horizontalStack=0;resizeParent=1;resizeParentMax=0;resizeLast=0;collapsible=1;marginBottom=0;whiteSpace=wrap;html=1;" vertex="1" parent="1">
          <mxGeometry x="681" y="-144" width="230" height="134" as="geometry" />
        </mxCell>
        <mxCell id="bdUPGDWGOzHbn5Srj9QY-6" value="+IDPedido: int&lt;div&gt;-dataPedido: String&lt;/div&gt;&lt;div&gt;+status: String&lt;/div&gt;" style="text;strokeColor=none;fillColor=none;align=left;verticalAlign=top;spacingLeft=4;spacingRight=4;overflow=hidden;rotatable=0;points=[[0,0.5],[1,0.5]];portConstraint=eastwest;whiteSpace=wrap;html=1;" vertex="1" parent="bdUPGDWGOzHbn5Srj9QY-5">
          <mxGeometry y="26" width="230" height="58" as="geometry" />
        </mxCell>
        <mxCell id="bdUPGDWGOzHbn5Srj9QY-7" value="" style="line;strokeWidth=1;fillColor=none;align=left;verticalAlign=middle;spacingTop=-1;spacingLeft=3;spacingRight=3;rotatable=0;labelPosition=right;points=[];portConstraint=eastwest;strokeColor=inherit;" vertex="1" parent="bdUPGDWGOzHbn5Srj9QY-5">
          <mxGeometry y="84" width="230" height="8" as="geometry" />
        </mxCell>
        <mxCell id="bdUPGDWGOzHbn5Srj9QY-8" value="+adicionarProduto(IDProduto): void&lt;div&gt;+calcularTotal(): void&lt;/div&gt;" style="text;strokeColor=none;fillColor=none;align=left;verticalAlign=top;spacingLeft=4;spacingRight=4;overflow=hidden;rotatable=0;points=[[0,0.5],[1,0.5]];portConstraint=eastwest;whiteSpace=wrap;html=1;" vertex="1" parent="bdUPGDWGOzHbn5Srj9QY-5">
          <mxGeometry y="92" width="230" height="42" as="geometry" />
        </mxCell>
        <mxCell id="bdUPGDWGOzHbn5Srj9QY-9" value="Pagamento" style="swimlane;fontStyle=1;align=center;verticalAlign=top;childLayout=stackLayout;horizontal=1;startSize=26;horizontalStack=0;resizeParent=1;resizeParentMax=0;resizeLast=0;collapsible=1;marginBottom=0;whiteSpace=wrap;html=1;" vertex="1" parent="1">
          <mxGeometry x="1071" y="-150" width="170" height="140" as="geometry" />
        </mxCell>
        <mxCell id="bdUPGDWGOzHbn5Srj9QY-10" value="+IDPagamento: int&lt;div&gt;+tipo: String&lt;/div&gt;&lt;div&gt;+status: String&amp;nbsp;&lt;/div&gt;&lt;div&gt;+valor: float&lt;/div&gt;" style="text;strokeColor=none;fillColor=none;align=left;verticalAlign=top;spacingLeft=4;spacingRight=4;overflow=hidden;rotatable=0;points=[[0,0.5],[1,0.5]];portConstraint=eastwest;whiteSpace=wrap;html=1;" vertex="1" parent="bdUPGDWGOzHbn5Srj9QY-9">
          <mxGeometry y="26" width="170" height="65" as="geometry" />
        </mxCell>
        <mxCell id="bdUPGDWGOzHbn5Srj9QY-11" value="" style="line;strokeWidth=1;fillColor=none;align=left;verticalAlign=middle;spacingTop=-1;spacingLeft=3;spacingRight=3;rotatable=0;labelPosition=right;points=[];portConstraint=eastwest;strokeColor=inherit;" vertex="1" parent="bdUPGDWGOzHbn5Srj9QY-9">
          <mxGeometry y="91" width="170" height="8" as="geometry" />
        </mxCell>
        <mxCell id="bdUPGDWGOzHbn5Srj9QY-12" value="+processarPagamento(): void" style="text;strokeColor=none;fillColor=none;align=left;verticalAlign=top;spacingLeft=4;spacingRight=4;overflow=hidden;rotatable=0;points=[[0,0.5],[1,0.5]];portConstraint=eastwest;whiteSpace=wrap;html=1;" vertex="1" parent="bdUPGDWGOzHbn5Srj9QY-9">
          <mxGeometry y="99" width="170" height="41" as="geometry" />
        </mxCell>
        <mxCell id="bdUPGDWGOzHbn5Srj9QY-13" value="CarrinhoDeComprar" style="swimlane;fontStyle=1;align=center;verticalAlign=top;childLayout=stackLayout;horizontal=1;startSize=26;horizontalStack=0;resizeParent=1;resizeParentMax=0;resizeLast=0;collapsible=1;marginBottom=0;whiteSpace=wrap;html=1;" vertex="1" parent="1">
          <mxGeometry x="683.5" y="411" width="225" height="125" as="geometry" />
        </mxCell>
        <mxCell id="bdUPGDWGOzHbn5Srj9QY-14" value="+IDCarrinho: int&lt;div&gt;+produtos: String&lt;/div&gt;" style="text;strokeColor=none;fillColor=none;align=left;verticalAlign=top;spacingLeft=4;spacingRight=4;overflow=hidden;rotatable=0;points=[[0,0.5],[1,0.5]];portConstraint=eastwest;whiteSpace=wrap;html=1;" vertex="1" parent="bdUPGDWGOzHbn5Srj9QY-13">
          <mxGeometry y="26" width="225" height="38" as="geometry" />
        </mxCell>
        <mxCell id="bdUPGDWGOzHbn5Srj9QY-15" value="" style="line;strokeWidth=1;fillColor=none;align=left;verticalAlign=middle;spacingTop=-1;spacingLeft=3;spacingRight=3;rotatable=0;labelPosition=right;points=[];portConstraint=eastwest;strokeColor=inherit;" vertex="1" parent="bdUPGDWGOzHbn5Srj9QY-13">
          <mxGeometry y="64" width="225" height="8" as="geometry" />
        </mxCell>
        <mxCell id="bdUPGDWGOzHbn5Srj9QY-16" value="+adicionarProduto(IDProduto: int): void&lt;div&gt;+removerProduto(IDProduto: int): void&lt;/div&gt;&lt;div&gt;+calcularTotal(): void&lt;/div&gt;" style="text;strokeColor=none;fillColor=none;align=left;verticalAlign=top;spacingLeft=4;spacingRight=4;overflow=hidden;rotatable=0;points=[[0,0.5],[1,0.5]];portConstraint=eastwest;whiteSpace=wrap;html=1;" vertex="1" parent="bdUPGDWGOzHbn5Srj9QY-13">
          <mxGeometry y="72" width="225" height="53" as="geometry" />
        </mxCell>
        <mxCell id="bdUPGDWGOzHbn5Srj9QY-17" value="Cliente" style="swimlane;fontStyle=1;align=center;verticalAlign=top;childLayout=stackLayout;horizontal=1;startSize=26;horizontalStack=0;resizeParent=1;resizeParentMax=0;resizeLast=0;collapsible=1;marginBottom=0;whiteSpace=wrap;html=1;" vertex="1" parent="1">
          <mxGeometry x="427" y="-149" width="160" height="139" as="geometry" />
        </mxCell>
        <mxCell id="bdUPGDWGOzHbn5Srj9QY-18" value="-IDCliente: int&amp;nbsp;&lt;div&gt;+nome: String&lt;/div&gt;&lt;div&gt;+email: String&lt;/div&gt;&lt;div&gt;-endereço: String&lt;/div&gt;" style="text;strokeColor=none;fillColor=none;align=left;verticalAlign=top;spacingLeft=4;spacingRight=4;overflow=hidden;rotatable=0;points=[[0,0.5],[1,0.5]];portConstraint=eastwest;whiteSpace=wrap;html=1;" vertex="1" parent="bdUPGDWGOzHbn5Srj9QY-17">
          <mxGeometry y="26" width="160" height="68" as="geometry" />
        </mxCell>
        <mxCell id="bdUPGDWGOzHbn5Srj9QY-19" value="" style="line;strokeWidth=1;fillColor=none;align=left;verticalAlign=middle;spacingTop=-1;spacingLeft=3;spacingRight=3;rotatable=0;labelPosition=right;points=[];portConstraint=eastwest;strokeColor=inherit;" vertex="1" parent="bdUPGDWGOzHbn5Srj9QY-17">
          <mxGeometry y="94" width="160" height="8" as="geometry" />
        </mxCell>
        <mxCell id="bdUPGDWGOzHbn5Srj9QY-20" value="+registrar(): void&lt;div&gt;+login(): void&lt;/div&gt;" style="text;strokeColor=none;fillColor=none;align=left;verticalAlign=top;spacingLeft=4;spacingRight=4;overflow=hidden;rotatable=0;points=[[0,0.5],[1,0.5]];portConstraint=eastwest;whiteSpace=wrap;html=1;" vertex="1" parent="bdUPGDWGOzHbn5Srj9QY-17">
          <mxGeometry y="102" width="160" height="37" as="geometry" />
        </mxCell>
        <mxCell id="bdUPGDWGOzHbn5Srj9QY-21" value="" style="fontSize=12;html=1;endArrow=ERoneToMany;startArrow=ERzeroToMany;rounded=0;startSize=8;endSize=8;entryX=1;entryY=0.5;entryDx=0;entryDy=0;exitX=0;exitY=0.5;exitDx=0;exitDy=0;" edge="1" parent="1" source="bdUPGDWGOzHbn5Srj9QY-6" target="bdUPGDWGOzHbn5Srj9QY-18">
          <mxGeometry width="100" height="100" relative="1" as="geometry">
            <mxPoint x="570" y="128" as="sourcePoint" />
            <mxPoint x="670" y="28" as="targetPoint" />
          </mxGeometry>
        </mxCell>
        <mxCell id="bdUPGDWGOzHbn5Srj9QY-22" value="" style="fontSize=12;html=1;endArrow=ERoneToMany;startArrow=ERzeroToMany;rounded=0;startSize=8;endSize=8;entryX=0.5;entryY=0;entryDx=0;entryDy=0;" edge="1" parent="1" source="bdUPGDWGOzHbn5Srj9QY-8" target="bdUPGDWGOzHbn5Srj9QY-1">
          <mxGeometry width="100" height="100" relative="1" as="geometry">
            <mxPoint x="570" y="128" as="sourcePoint" />
            <mxPoint x="670" y="28" as="targetPoint" />
          </mxGeometry>
        </mxCell>
        <mxCell id="bdUPGDWGOzHbn5Srj9QY-23" value="" style="fontSize=12;html=1;endArrow=ERoneToMany;startArrow=ERzeroToOne;rounded=0;startSize=8;endSize=8;exitX=0.5;exitY=0;exitDx=0;exitDy=0;" edge="1" parent="1" source="bdUPGDWGOzHbn5Srj9QY-13" target="bdUPGDWGOzHbn5Srj9QY-4">
          <mxGeometry width="100" height="100" relative="1" as="geometry">
            <mxPoint x="752" y="128" as="sourcePoint" />
            <mxPoint x="948" y="153" as="targetPoint" />
            <Array as="points" />
          </mxGeometry>
        </mxCell>
        <mxCell id="bdUPGDWGOzHbn5Srj9QY-24" value="" style="fontSize=12;html=1;endArrow=ERoneToMany;startArrow=ERoneToMany;rounded=0;startSize=8;endSize=8;entryX=0;entryY=0.5;entryDx=0;entryDy=0;exitX=1;exitY=0.5;exitDx=0;exitDy=0;" edge="1" parent="1" source="bdUPGDWGOzHbn5Srj9QY-6" target="bdUPGDWGOzHbn5Srj9QY-10">
          <mxGeometry width="100" height="100" relative="1" as="geometry">
            <mxPoint x="882" y="28" as="sourcePoint" />
            <mxPoint x="982" y="-72" as="targetPoint" />
          </mxGeometry>
        </mxCell>
        <mxCell id="hFif0j6HSmP6kFvtHpq2-2" value="" style="endArrow=open;endSize=12;dashed=1;html=1;rounded=0;entryX=1;entryY=0.5;entryDx=0;entryDy=0;exitX=0;exitY=0.5;exitDx=0;exitDy=0;" edge="1" parent="1" source="bdUPGDWGOzHbn5Srj9QY-12" target="bdUPGDWGOzHbn5Srj9QY-8">
          <mxGeometry width="160" relative="1" as="geometry">
            <mxPoint x="1041" y="271" as="sourcePoint" />
            <mxPoint x="1041" y="221" as="targetPoint" />
          </mxGeometry>
        </mxCell>
        <mxCell id="hFif0j6HSmP6kFvtHpq2-4" value="" style="endArrow=open;endSize=12;dashed=1;html=1;rounded=0;entryX=0.724;entryY=1.019;entryDx=0;entryDy=0;entryPerimeter=0;exitX=0.75;exitY=0;exitDx=0;exitDy=0;" edge="1" parent="1" source="bdUPGDWGOzHbn5Srj9QY-13" target="bdUPGDWGOzHbn5Srj9QY-4">
          <mxGeometry width="160" relative="1" as="geometry">
            <mxPoint x="861" y="341" as="sourcePoint" />
            <mxPoint x="1021" y="341" as="targetPoint" />
          </mxGeometry>
        </mxCell>
        <mxCell id="hFif0j6HSmP6kFvtHpq2-5" value="" style="endArrow=open;endSize=12;dashed=1;html=1;rounded=0;exitX=0;exitY=0.5;exitDx=0;exitDy=0;entryX=1;entryY=0.5;entryDx=0;entryDy=0;" edge="1" parent="1" source="bdUPGDWGOzHbn5Srj9QY-8" target="bdUPGDWGOzHbn5Srj9QY-20">
          <mxGeometry width="160" relative="1" as="geometry">
            <mxPoint x="471" y="231" as="sourcePoint" />
            <mxPoint x="511" y="61" as="targetPoint" />
          </mxGeometry>
        </mxCell>
        <mxCell id="JRUX4kfnVwOwZdvDcvwm-1" value="" style="endArrow=open;endSize=12;dashed=1;html=1;rounded=0;exitX=0.648;exitY=1;exitDx=0;exitDy=0;exitPerimeter=0;entryX=0.644;entryY=0;entryDx=0;entryDy=0;entryPerimeter=0;" edge="1" parent="1" source="bdUPGDWGOzHbn5Srj9QY-8" target="bdUPGDWGOzHbn5Srj9QY-1">
          <mxGeometry width="160" relative="1" as="geometry">
            <mxPoint x="320" y="220" as="sourcePoint" />
            <mxPoint x="630" y="220" as="targetPoint" />
          </mxGeometry>
        </mxCell>
      </root>
    </mxGraphModel>
  </diagram>
</mxfile>
